<svg width="33" height="33" viewBox="0 0 33 33" fill="none" xmlns="http://www.w3.org/2000/svg">
<g clip-path="url(#clip0_20005128_14180)">
<g clip-path="url(#clip1_20005128_14180)">
<g clip-path="url(#clip2_20005128_14180)">
<path d="M0.523389 0.919678C0.216826 1.22624 0.0124512 1.83937 0.0124512 2.55468V28.3059C0.0124512 29.0212 0.216826 29.6344 0.523389 29.9409L0.625576 30.0431L15.4428 15.6347V15.3281L0.523389 0.919678Z" fill="url(#paint0_linear_20005128_14180)"/>
<path d="M20.3477 20.3353L15.4427 15.5325V15.2259L20.3477 10.4231L20.4499 10.5253L26.2746 13.7953C27.9096 14.715 27.9096 16.2478 26.2746 17.1675L20.4499 20.3353H20.3477Z" fill="url(#paint1_linear_20005128_14180)"/>
<path d="M20.45 20.3353L15.4428 15.4303L0.523438 29.9409C1.13656 30.4519 2.05625 30.554 3.07812 29.9409L20.45 20.3353Z" fill="url(#paint2_linear_20005128_14180)"/>
<path d="M20.45 10.5253L3.07812 0.817499C2.05625 0.306562 1.13656 0.306562 0.523438 0.919687L15.3406 15.4303L20.45 10.5253Z" fill="url(#paint3_linear_20005128_14180)"/>
</g>
</g>
</g>
<defs>
<linearGradient id="paint0_linear_20005128_14180" x1="13.9705" y1="28.695" x2="-5.56372" y2="8.68736" gradientUnits="userSpaceOnUse">
<stop stop-color="#00A0FF"/>
<stop offset="0.0066" stop-color="#00A1FF"/>
<stop offset="0.2601" stop-color="#00BEFF"/>
<stop offset="0.5122" stop-color="#00D2FF"/>
<stop offset="0.7604" stop-color="#00DFFF"/>
<stop offset="1" stop-color="#00E3FF"/>
</linearGradient>
<linearGradient id="paint1_linear_20005128_14180" x1="28.4689" y1="15.4053" x2="-0.386402" y2="15.4053" gradientUnits="userSpaceOnUse">
<stop stop-color="#FFE000"/>
<stop offset="0.4087" stop-color="#FFBD00"/>
<stop offset="0.7754" stop-color="#FFA500"/>
<stop offset="1" stop-color="#FF9C00"/>
</linearGradient>
<linearGradient id="paint2_linear_20005128_14180" x1="7.8419" y1="22.3839" x2="-18.6482" y2="-4.74806" gradientUnits="userSpaceOnUse">
<stop stop-color="#FF3A44"/>
<stop offset="1" stop-color="#C31162"/>
</linearGradient>
<linearGradient id="paint3_linear_20005128_14180" x1="-12.5597" y1="29.3266" x2="-0.73071" y2="17.211" gradientUnits="userSpaceOnUse">
<stop stop-color="#32A071"/>
<stop offset="0.0685" stop-color="#2DA771"/>
<stop offset="0.4762" stop-color="#15CF74"/>
<stop offset="0.8009" stop-color="#06E775"/>
<stop offset="1" stop-color="#00F076"/>
</linearGradient>
<clipPath id="clip0_20005128_14180">
<rect width="33" height="33" fill="white"/>
</clipPath>
<clipPath id="clip1_20005128_14180">
<rect width="139" height="32.7" fill="white"/>
</clipPath>
<clipPath id="clip2_20005128_14180">
<rect width="138.975" height="32.7" fill="white" transform="translate(0.0124512)"/>
</clipPath>
</defs>
</svg>
